<svg xmlns="http://www.w3.org/2000/svg" viewBox="0 0 24 24"><path d="M12 1.5a10.502 10.502 0 0 0-9.564 6.168l-.01.02-.041.085-.02.05c-.06.137-.116.277-.17.417-.019.05-.04.1-.058.15-.031.085-.057.171-.086.256-.029.086-.06.17-.086.256l-.033.102c-.014.045-.025.092-.036.137a10.447 10.447 0 0 0-.303 1.479 9.44 9.44 0 0 0-.005.036 10.494 10.494 0 0 0 0 .012c-.055.436-.088.88-.088 1.332 0 .044.003.088.004.133a10.494 10.494 0 0 0 0 .056 10.424 10.424 0 0 0 1.75 5.62 10.494 10.494 0 0 0 .014.023c.265.397.559.775.875 1.13a10.494 10.494 0 0 0 .066.077c.315.349.653.673 1.012.977a10.494 10.494 0 0 0 .072.062c.37.307.76.59 1.17.844a10.494 10.494 0 0 0 .02.014 10.502 10.502 0 0 0 .011.005 10.467 10.467 0 0 0 4.186 1.473 10.502 10.502 0 0 0 .056.008c.415.05.836.078 1.264.078.056 0 .11-.003.166-.004a10.502 10.502 0 0 0 .094-.002 10.56 10.56 0 0 0 1.43-.13 10.502 10.502 0 0 0 .042-.009 10.437 10.437 0 0 0 4.137-1.648 10.516 10.516 0 0 0 .121-.084 10.516 10.516 0 0 0 .229-.162l.137-.104a10.516 10.516 0 0 0 .251-.199l.108-.088.027-.021a10.516 10.516 0 0 0 .319-.278c.03-.027.058-.056.087-.084a10.516 10.516 0 0 0 .196-.187l.135-.133a10.516 10.516 0 0 0 .193-.203l.12-.127a10.516 10.516 0 0 0 .237-.275c.068-.08.134-.162.2-.244l.03-.038a10.516 10.516 0 0 0 .03-.039c.065-.083.13-.166.192-.252a10.53 10.53 0 0 0 .597-.916 10.43 10.43 0 0 0 1.383-4.404 10.516 10.516 0 0 0 .012-.152c.006-.09.011-.178.015-.268l.002-.027a10.516 10.516 0 0 0 .01-.404 10.516 10.516 0 0 0-.002-.059 10.516 10.516 0 0 0-.01-.434 9.387 9.387 0 0 0-.006-.119 10.516 10.516 0 0 0-.033-.441 10.516 10.516 0 0 0-.004-.04l-.006-.04a10.516 10.516 0 0 0-.052-.426l-.018-.113a10.516 10.516 0 0 0-.057-.313 10.49 10.49 0 0 0-.142-.654v-.004c-.043-.166-.09-.33-.14-.492l-.003-.006a10.436 10.436 0 0 0-.955-2.162l-.004-.008a10.565 10.565 0 0 0-.004-.006c-.223-.381-.47-.747-.738-1.096a10.565 10.565 0 0 0-.031-.039c-.264-.34-.547-.664-.85-.968l-.021-.022a10.565 10.565 0 0 0 0-.002 10.44 10.44 0 0 0-.022-.017 10.547 10.547 0 0 0-1.14-.987 10.44 10.44 0 0 0-.072-.05c-.395-.289-.81-.55-1.243-.782a10.44 10.44 0 0 0-.097-.05 10.454 10.454 0 0 0-1.348-.586 10.44 10.44 0 0 0-.082-.03c-.46-.158-.933-.285-1.418-.379a10.44 10.44 0 0 0-.113-.021c-.473-.086-.955-.14-1.448-.16a10.44 10.44 0 0 0-.109-.004c-.11-.004-.22-.008-.332-.008zm1.576 3.188A7.5 7.5 0 0 1 18.64 15.44l-.032-.005-.002.003a.588.588 0 0 1-.06-.01.884.884 0 0 0-.074-.01l-.203-.017c-.154-.013-.31-.026-.46-.049-.52-.079-1.095-.373-1.165-.894a.5.5 0 0 0-.086-.3c-.078-.078-.196-.07-.309-.061l-.076.002a1.856 1.856 0 0 1-1.002-.477 3.459 3.459 0 0 0-3.285-.283c-.163.096-.35.148-.54.154-.35-.028-.504-.363-.663-.707a2.936 2.936 0 0 0-.246-.455c-.452-.627-1.386-.579-2.15-.465a4.169 4.169 0 0 1 .071-1.941l1.15-.285a.621.621 0 0 1 .302-.024c.223.057.272.29.324.533.035.162.07.327.156.452.283.402.91.192 1.334-.057-.12-.346-.227-.698-.326-1.05a.446.446 0 0 1-.016-.288.448.448 0 0 1 .13-.154c.022-.021.047-.043.068-.065a1.21 1.21 0 0 0 .209-.416A5.28 5.28 0 0 1 14.64 6.1a6.609 6.609 0 0 0-1.065-1.413zm-8.32 4.095a2.778 2.778 0 0 0 .08.192l.963 2.091a1.439 1.439 0 0 0 .293.467 2.206 2.206 0 0 0 .793.352c.5.184.897.542 1.297.904.314.283.63.57.996.772a5.362 5.362 0 0 0 1.85.496 3.56 3.56 0 0 1-.342 1.72 1.873 1.873 0 0 0 .058 1.703c.142.188.34.323.54.457.224.152.45.302.587.532.18.298.17.642.094.99A7.5 7.5 0 0 1 12 19.5 7.5 7.5 0 0 1 5.256 8.783z"/></svg>