<svg xmlns="http://www.w3.org/2000/svg" viewBox="0 0 24 24"><path d="M12.215 1.385a10.5 10.5 0 0 0-8.73 4.474c-.084.116-.166.233-.245.352a10.5 10.5 0 0 0-.355.578A10.451 10.451 0 0 0 1.5 12c0 5.799 4.701 10.5 10.5 10.5 4.856 0 8.94-3.296 10.14-7.773a10.5 10.5 0 0 0 .133-.555c.042-.198.08-.396.11-.598a10.5 10.5 0 0 0-10.168-12.19zm-.762 3.162a1.6 1.6 0 0 0 .01.625 2.06 2.06 0 0 1 .197.611c.001.41-.4.62-.803.83-.404.212-.807.424-.802.834a1.748 1.748 0 0 1 .021.377c-.057.272-.345.308-.65.344-.264.03-.539.062-.688.25l-.056 1.016a1.78 1.78 0 0 0 1.71-.174c.49-.346 1.007-.653 1.547-.916a.444.444 0 0 1 .413.002c.12.088.122.246.128.404a1.423 1.423 0 0 0 .01.162c.068.523.706.763 1.233.742a4.627 4.627 0 0 1 1.57-.033c.503.158.852.883.437 1.21-.216.035-.437.076-.66.116-1.382.25-2.863.516-4.12.002l-2.1.088c-.126.701-.504 1.021-1.022 1.46l-.137.114a2.256 2.256 0 0 1-.302.196c-.206.118-.433.25-.506.396a1.443 1.443 0 0 0-.242.77 4.497 4.497 0 0 0 .843 2.37 2.09 2.09 0 0 0 2.27.743c.34-.133.418-.09.545-.02a1.035 1.035 0 0 0 .476.14c.41.034.487.273.604.63a3.644 3.644 0 0 0 .053.156c.074.216.243.244.396.268.162.025.307.047.307.287a11.75 11.75 0 0 0 .049.937A7.5 7.5 0 0 1 12 19.5a7.5 7.5 0 0 1-.547-14.953zm-1.767.5c-.01 0-.019 0-.028.002-.186.028-.396.396-.59.74-.13.23-.253.448-.359.545a.182.182 0 0 0-.07.104.177.177 0 0 0 .058.126l.285.33c.48-.212.97-.398 1.471-.554-.025-.009-.07-.128-.129-.291-.14-.38-.365-1.002-.638-1.002zm8.101 6.68a9.744 9.744 0 0 0 .895 2.29.72.72 0 0 0 .26.31.75.75 0 0 0 .16.032 7.5 7.5 0 0 1-.409.967 5.174 5.174 0 0 1-2.49-2.562.427.427 0 0 1-.021-.28.45.45 0 0 1 .279-.216z"/></svg>